PathFileType	4	(X/Y/Z)	Walk8.trc
DataRate	CameraRate	NumFrames	NumMarkers	Units	OrigDataRate	OrigDataStartFrame	OrigNumFrames
200.000000	200.000000	7	59	mm	200.000000	362	625
Frame#	Times		LFHD		RFHD		CLAV		STRN		LASI		RASI		RACR1		RUA1		RElbow		RFA1		RWRR		RWRU		RCAR		LACR1		LUA1		LElbow		LFA1		LWRR		RTB1		RTB2		LTH1		LTH3		LTH2		LMFC		LTB1		LTB2		LMT1		RTH2		LTB4		LLFC		LCAR		LWRU		LTB3		LMT5		LToe		RTB4		RTH3		RTB3		RMFC		LTH4		RTH1		RTH4		RMMAL		RBHD		RElbowM		RLFC		RToe		RBack		RMT1		RCAL		LLMAL		LElbowM		LMMAL		RPSI		C7		T10		LPSI		LBHD		LCAL
			X1	Y1	Z1	X2	Y2	Z2	X3	Y3	Z3	X4	Y4	Z4	X5	Y5	Z5	X6	Y6	Z6	X7	Y7	Z7	X8	Y8	Z8	X9	Y9	Z9	X10	Y10	Z10	X11	Y11	Z11	X12	Y12	Z12	X13	Y13	Z13	X14	Y14	Z14	X15	Y15	Z15	X16	Y16	Z16	X17	Y17	Z17	X18	Y18	Z18	X19	Y19	Z19	X20	Y20	Z20	X21	Y21	Z21	X22	Y22	Z22	X23	Y23	Z23	X24	Y24	Z24	X25	Y25	Z25	X26	Y26	Z26	X27	Y27	Z27	X28	Y28	Z28	X29	Y29	Z29	X30	Y30	Z30	X31	Y31	Z31	X32	Y32	Z32	X33	Y33	Z33	X34	Y34	Z34	X35	Y35	Z35	X36	Y36	Z36	X37	Y37	Z37	X38	Y38	Z38	X39	Y39	Z39	X40	Y40	Z40	X41	Y41	Z41	X42	Y42	Z42	X43	Y43	Z43	X44	Y44	Z44	X45	Y45	Z45	X46	Y46	Z46	X47	Y47	Z47	X48	Y48	Z48	X49	Y49	Z49	X50	Y50	Z50	X51	Y51	Z51	X52	Y52	Z52	X53	Y53	Z53	X54	Y54	Z54	X55	Y55	Z55	X56	Y56	Z56	X57	Y57	Z57	X58	Y58	Z58	X59	Y59	Z59

362	1.81	47.573	1677.2	36.36	53.313	1668.2	-62.121	61.374	1412.4	12.253	131.15	1254.2	19.66	3.3687	996.67	-145.7	34.475	1002.5	211.5	-56.245	1505.9	175.77	-89.93	1350.7	305.85	-89.906	1205	365.28	-65.185	1054	386.68	-55.52	931.29	322.71	-55.264	941.38	403.75	-31.871	851.87	373.76	-53.809	1461.8	-174.12	-42.817	1282.8	-256.43	7.0131	1126	-305.55	84.454	1009.3	-310.56	178.34	921.82	-244.76	174.86	421.82	186.7	141.42	334.87	235.84	-75.416	760.71	-158.07	-74.487	592.15	-127.48	-17.031	679.54	-130.79	-71.039	502.04	36.118	-47.581	375.98	-54.884	-102.08	292.43	-85.659	-66.701	37.208	-0.93137	87.715	750.9	251.83	-69.052	297.15	-32.927	-98.197	507.72	-119.72	230.36	853.36	-276.83	148.26	886.43	-302.97	-99.141	217.12	-13.314	-139.03	25.46	-73.506	-14.789	24.242	-43.916	168.67	335.6	180.87	79.602	645.86	256.11	163.32	250.25	174.51	114.78	535.1	94.118	-75.703	677.01	-142.34	-5.592	796.56	269.49	37.955	720.92	264.51	135.01	113.36	115.47	-91.214	1580.9	-74.241	-151.36	1132.4	277.1	99.513	537.31	249.03	289.3	84.419	206.51	-198.46	1381	127.64	259.13	68.507	165.33	41.157	66.502	138.02	-222.46	82.298	-2.9491	-44.049	1049.9	-217.05	-188.45	89.561	80.389	-235.29	1034.1	83.02	-132.94	1488.5	3.9928	-192.92	1176	38.083	-233.4	1047.7	-1.1828	-85.073	1600.1	71.847	-272	60.624	59.008
363	1.815	53.68	1676.4	36.646	59.427	1667.4	-61.84	67.371	1411.5	12.349	137.13	1253.3	19.538	8.2506	995.9	-146.08	40.777	1001.3	211.34	-50.036	1505.1	175.99	-84.439	1350	306	-85.014	1204.3	365.44	-61.143	1053	386.91	-52.214	930.16	323.06	-51.951	940.33	404.09	-29.198	850.6	374.18	-47.82	1461	-173.93	-35.803	1282.3	-256.41	15.276	1126	-305.71	93.738	1010	-310.55	188.2	923.37	-244.52	184.85	422.85	186.23	153.99	335.1	235.59	-71.061	760.2	-158.15	-70.902	591.62	-127.64	-13.06	678.77	-130.84	-67.961	501.42	36.002	-45.267	375.13	-54.919	-100.33	291.93	-85.671	-66.633	37.199	-0.9576	93.769	749.97	251.29	-67.3	296.46	-32.928	-95.06	507.23	-119.82	241.06	855.61	-276.53	158.67	887.73	-302.84	-97.97	216.64	-13.27	-139.02	25.475	-73.441	-14.756	24.205	-43.982	181.36	336.48	180.67	85.726	644.92	255.46	178.7	250.98	174.63	121.45	534.03	93.123	-71.691	676.51	-142.48	0.60727	795.56	269.49	44.1	719.96	264.23	154.75	113.16	115.9	-85.107	1580.1	-74.036	-146.62	1131.9	277.08	106.44	536.3	248.13	309.82	88.143	207.08	-192.41	1380.4	127.91	280.05	71.695	165.79	62.278	63.839	138.37	-222.13	82.613	-2.8434	-35.522	1049.3	-217.52	-188.07	89.723	80.52	-229.38	1033.4	83.638	-126.86	1487.8	4.2226	-187.06	1175.4	38.726	-227.76	1047.2	-0.45424	-78.98	1599.2	72.049	-271.79	61.142	59.12
364	1.82	59.815	1675.5	36.949	65.568	1666.5	-61.543	73.4	1410.6	12.467	143.13	1252.3	19.434	13.105	995.08	-146.48	47.07	1000	211.24	-43.789	1504.2	176.23	-78.918	1349.2	306.18	-80.1	1203.5	365.63	-57.07	1052	387.15	-48.863	929.03	323.41	-48.599	939.27	404.43	-26.473	849.32	374.59	-41.807	1460.2	-173.72	-28.804	1281.7	-256.36	23.48	1125.9	-305.83	102.94	1010.7	-310.51	197.96	924.88	-244.25	194.66	423.86	185.75	166.42	335.39	235.34	-66.691	759.66	-158.23	-67.287	591.07	-127.81	-9.0659	677.97	-130.9	-64.789	500.77	35.852	-42.917	374.26	-54.961	-98.563	291.41	-85.688	-66.567	37.192	-0.98676	99.738	748.88	250.73	-65.525	295.75	-32.933	-91.884	506.71	-119.91	251.65	857.82	-276.21	168.98	889	-302.68	-96.782	216.15	-13.229	-139.01	25.492	-73.371	-14.721	24.167	-44.048	193.86	337.43	180.45	91.706	643.8	254.82	193.88	251.87	174.72	127.94	532.79	92.147	-67.663	675.99	-142.61	6.7479	794.44	269.46	50.148	718.86	263.95	174.28	113.25	116.32	-78.969	1579.3	-73.812	-141.84	1131.3	277.08	113.25	535.18	247.24	330.08	92.193	207.53	-186.32	1379.6	128.21	300.7	75.237	166.16	83.276	61.499	138.73	-221.79	82.941	-2.7351	-26.986	1048.7	-217.92	-187.67	89.894	80.647	-223.45	1032.7	84.307	-120.75	1487	4.4812	-181.17	1174.7	39.401	-222.1	1046.6	0.31484	-72.861	1598.4	72.272	-271.59	61.68	59.23
365	1.825	65.978	1674.5	37.269	71.739	1665.6	-61.228	79.462	1409.6	12.608	149.17	1251.4	19.35	17.937	994.22	-146.9	53.357	998.68	211.21	-37.507	1503.3	176.5	-73.365	1348.5	306.37	-75.161	1202.7	365.82	-52.962	1051	387.4	-45.464	927.88	323.75	-45.206	938.18	404.77	-23.694	848.03	375.01	-35.769	1459.4	-173.49	-21.821	1281.1	-256.29	31.626	1125.8	-305.93	112.05	1011.3	-310.45	207.63	926.35	-243.97	204.28	424.86	185.25	178.68	335.74	235.08	-62.309	759.1	-158.3	-63.649	590.49	-127.97	-5.0523	677.15	-130.96	-61.529	500.09	35.673	-40.537	373.36	-55.009	-96.775	290.89	-85.71	-66.502	37.186	-1.0186	105.63	747.61	250.15	-63.727	295.03	-32.944	-88.677	506.17	-120.01	262.11	859.96	-275.87	179.18	890.23	-302.49	-95.58	215.65	-13.191	-139	25.511	-73.296	-14.684	24.13	-44.113	206.16	338.44	180.22	97.547	642.52	254.18	208.84	252.89	174.79	134.25	531.39	91.19	-63.626	675.43	-142.74	12.83	793.2	269.39	56.103	717.62	263.64	193.58	113.62	116.72	-72.8	1578.4	-73.567	-137.02	1130.8	277.08	119.96	533.96	246.35	350.05	96.569	207.86	-180.2	1378.9	128.53	321.04	79.122	166.42	104.11	59.474	139.11	-221.44	83.28	-2.6237	-18.463	1048.1	-218.25	-187.27	90.072	80.772	-217.48	1032	85.025	-114.61	1486.2	4.7689	-175.26	1174	40.108	-216.41	1045.9	1.1242	-66.714	1597.4	72.515	-271.38	62.236	59.336
366	1.83	72.17	1673.6	37.608	77.939	1664.7	-60.893	85.558	1408.6	12.774	155.25	1250.4	19.288	22.753	993.31	-147.33	59.64	997.3	211.22	-31.189	1502.4	176.78	-67.776	1347.7	306.58	-70.193	1201.8	366.04	-48.817	1050	387.66	-42.014	926.72	324.1	-41.767	937.09	405.11	-20.856	846.73	375.41	-29.706	1458.5	-173.23	-14.857	1280.5	-256.19	39.712	1125.6	-305.99	121.08	1011.8	-310.35	217.21	927.76	-243.66	213.73	425.84	184.75	190.78	336.14	234.81	-57.918	758.5	-158.36	-59.993	589.88	-128.13	-1.0234	676.3	-131.03	-58.189	499.39	35.473	-38.13	372.45	-55.065	-94.974	290.36	-85.737	-66.44	37.183	-1.0525	111.45	746.17	249.57	-61.909	294.29	-32.961	-85.444	505.61	-120.11	272.46	862.04	-275.49	189.28	891.41	-302.28	-94.365	215.15	-13.156	-138.99	25.53	-73.216	-14.645	24.093	-44.177	218.26	339.51	179.97	103.26	641.09	253.55	223.57	254.06	174.83	140.39	529.85	90.253	-59.587	674.84	-142.85	18.855	791.85	269.28	61.972	716.24	263.33	212.59	114.27	117.09	-66.6	1577.5	-73.3	-132.15	1130.2	277.1	126.59	532.67	245.47	369.67	101.26	208.05	-174.05	1378.1	128.88	341.03	83.333	166.57	124.74	57.756	139.49	-221.09	83.628	-2.5095	-9.9773	1047.4	-218.52	-186.86	90.257	80.896	-211.48	1031.3	85.792	-108.44	1485.4	5.0861	-169.32	1173.3	40.843	-210.68	1045.3	1.9734	-60.541	1596.5	72.78	-271.16	62.808	59.44
367	1.835	78.388	1672.6	37.969	84.168	1663.8	-60.536	91.687	1407.6	12.965	161.35	1249.3	19.249	27.559	992.37	-147.78	65.922	995.88	211.29	-24.836	1501.4	177.09	-62.149	1346.9	306.81	-65.195	1201	366.27	-44.63	1048.9	387.92	-38.509	925.56	324.44	-38.28	935.97	405.44	-17.96	845.43	375.82	-23.616	1457.6	-172.95	-7.9114	1279.8	-256.06	47.739	1125.5	-306.02	130.03	1012.3	-310.23	226.69	929.12	-243.34	223.01	426.8	184.24	202.7	336.6	234.52	-53.521	757.88	-158.41	-56.325	589.25	-128.29	3.0172	675.43	-131.11	-54.78	498.66	35.261	-35.7	371.52	-55.127	-93.162	289.81	-85.769	-66.381	37.18	-1.0876	117.2	744.58	248.97	-60.073	293.54	-32.984	-82.192	505.03	-120.21	282.69	864.05	-275.09	199.27	892.54	-302.03	-93.138	214.65	-13.124	-138.98	25.551	-73.132	-14.605	24.056	-44.24	230.14	340.64	179.7	108.87	639.5	252.92	238.04	255.34	174.84	146.39	528.18	89.338	-55.55	674.22	-142.96	24.828	790.4	269.13	67.764	714.73	262.99	231.3	115.18	117.42	-60.369	1576.6	-73.008	-127.24	1129.6	277.12	133.14	531.3	244.61	388.91	106.24	208.1	-167.87	1377.3	129.25	360.63	87.839	166.6	145.12	56.331	139.85	-220.74	83.986	-2.3934	-1.5493	1046.8	-218.74	-186.44	90.446	81.019	-205.44	1030.5	86.606	-102.25	1484.5	5.4324	-163.36	1172.5	41.605	-204.93	1044.5	2.8614	-54.341	1595.5	73.067	-270.95	63.394	59.542
368	1.84	84.635	1671.5	38.353	90.427	1662.8	-60.154	97.849	1406.5	13.183	167.49	1248.3	19.237	32.364	991.39	-148.23	72.205	994.4	211.39	-18.451	1500.4	177.41	-56.482	1346	307.06	-60.162	1200.1	366.51	-40.399	1047.9	388.2	-34.947	924.39	324.79	-34.74	934.85	405.78	-15	844.12	376.21	-17.498	1456.7	-172.64	-0.98465	1279.1	-255.9	55.707	1125.2	-306.02	138.89	1012.8	-310.08	236.07	930.42	-242.99	232.12	427.74	183.73	214.42	337.11	234.23	-49.119	757.23	-158.45	-52.65	588.6	-128.44	7.0665	674.53	-131.2	-51.313	497.91	35.045	-33.25	370.56	-55.196	-91.346	289.26	-85.804	-66.326	37.177	-1.123	122.9	742.86	248.36	-58.22	292.77	-33.014	-78.926	504.44	-120.31	292.79	865.99	-274.66	209.15	893.63	-301.76	-91.902	214.13	-13.094	-138.98	25.573	-73.042	-14.563	24.021	-44.301	241.81	341.81	179.42	114.38	637.78	252.31	252.23	256.74	174.83	152.26	526.4	88.447	-51.518	673.58	-143.05	30.753	788.84	268.93	73.492	713.11	262.63	249.65	116.32	117.71	-54.107	1575.6	-72.691	-122.28	1129	277.17	139.64	529.88	243.75	407.72	111.48	208.01	-161.65	1376.5	129.65	379.78	92.601	166.52	165.19	55.184	140.19	-220.39	84.354	-2.2769	6.8062	1046.1	-218.93	-186.02	90.637	81.141	-199.37	1029.7	87.465	-96.033	1483.6	5.8079	-157.36	1171.7	42.392	-199.15	1043.8	3.7865	-48.114	1594.5	73.377	-270.73	63.992	59.643
